<svg width="81" height="81" viewBox="0 0 81 81" fill="none" xmlns="http://www.w3.org/2000/svg">
<path d="M63.3751 21.5301C63.1437 21.4916 62.8738 21.4916 62.6424 21.5301C57.3201 21.3376 53.0776 16.9875 53.0776 11.598C53.0776 6.09309 57.5129 1.66602 63.028 1.66602C68.5432 1.66602 72.9784 6.13159 72.9784 11.598C72.9399 16.9875 68.6974 21.3376 63.3751 21.5301Z" stroke="#DE784C" stroke-width="3" stroke-linecap="round" stroke-linejoin="round"/>
<path d="M59.4018 49.5558C64.6856 50.4413 70.5093 49.5173 74.5974 46.7841C80.0354 43.1655 80.0354 37.2371 74.5974 33.6184C70.4707 30.8852 64.5699 29.9612 59.2861 30.8852" stroke="#DE784C" stroke-width="3" stroke-linecap="round" stroke-linejoin="round"/>
<path d="M16.9783 21.5301C17.2097 21.4916 17.4797 21.4916 17.7111 21.5301C23.0334 21.3376 27.2758 16.9875 27.2758 11.598C27.2758 6.09309 22.8406 1.66602 17.3254 1.66602C11.8103 1.66602 7.375 6.13159 7.375 11.598C7.41357 16.9875 11.656 21.3376 16.9783 21.5301Z" stroke="#DE784C" stroke-width="3" stroke-linecap="round" stroke-linejoin="round"/>
<path d="M20.9503 49.5558C15.6666 50.4413 9.84293 49.5173 5.75478 46.7841C0.316767 43.1655 0.316767 37.2371 5.75478 33.6184C9.88149 30.8852 15.7823 29.9612 21.066 30.8852" stroke="#DE784C" stroke-width="3" stroke-linecap="round" stroke-linejoin="round"/>
<path d="M40.234 50.2859C40.0026 50.2474 39.7327 50.2474 39.5012 50.2859C34.1789 50.0935 29.9365 45.7434 29.9365 40.3539C29.9365 34.8489 34.3718 30.4219 39.8869 30.4219C45.4021 30.4219 49.8373 34.8874 49.8373 40.3539C49.7988 45.7434 45.5563 50.132 40.234 50.2859Z" stroke="#DE784C" stroke-width="3" stroke-linecap="round" stroke-linejoin="round"/>
<path d="M29.0116 62.4101C23.5736 66.0287 23.5736 71.9571 29.0116 75.5758C35.1824 79.6949 45.2871 79.6949 51.4579 75.5758C56.8959 71.9571 56.8959 66.0287 51.4579 62.4101C45.3256 58.3295 35.1824 58.3295 29.0116 62.4101Z" stroke="#DE784C" stroke-width="3" stroke-linecap="round" stroke-linejoin="round"/>
</svg>
