<svg width="77" height="77" viewBox="0 0 77 77" fill="none" xmlns="http://www.w3.org/2000/svg">
<path d="M28.8753 70.5837H48.1253C64.167 70.5837 70.5837 64.167 70.5837 48.1253V28.8753C70.5837 12.8337 64.167 6.41699 48.1253 6.41699H28.8753C12.8337 6.41699 6.41699 12.8337 6.41699 28.8753V48.1253C6.41699 64.167 12.8337 70.5837 28.8753 70.5837Z" stroke="#DE784C" stroke-width="3" stroke-linecap="round" stroke-linejoin="round"/>
<path d="M22.458 26.4688C25.6663 29.6771 30.8959 29.6771 34.1363 26.4688" stroke="#DE784C" stroke-width="3" stroke-miterlimit="10" stroke-linecap="round" stroke-linejoin="round"/>
<path d="M42.8623 26.4688C46.0706 29.6771 51.3002 29.6771 54.5406 26.4688" stroke="#DE784C" stroke-width="3" stroke-miterlimit="10" stroke-linecap="round" stroke-linejoin="round"/>
<path d="M26.95 41.708H50.05C51.6542 41.708 52.9375 42.9913 52.9375 44.5955C52.9375 52.5843 46.4887 59.033 38.5 59.033C30.5112 59.033 24.0625 52.5843 24.0625 44.5955C24.0625 42.9913 25.3458 41.708 26.95 41.708Z" stroke="#DE784C" stroke-width="3" stroke-miterlimit="10" stroke-linecap="round" stroke-linejoin="round"/>
</svg>
