<svg width="76" height="76" viewBox="0 0 76 76" fill="none" xmlns="http://www.w3.org/2000/svg">
<path d="M63.3333 44.3337C66.8311 44.3337 69.6667 41.4981 69.6667 38.0003C69.6667 34.5025 66.8311 31.667 63.3333 31.667C59.8355 31.667 57 34.5025 57 38.0003C57 41.4981 59.8355 44.3337 63.3333 44.3337Z" stroke="#DE784C" stroke-width="2.5" stroke-linecap="round" stroke-linejoin="round"/>
<path d="M19 38H57" stroke="#DE784C" stroke-width="2.5" stroke-linecap="round" stroke-linejoin="round"/>
<path d="M63.3333 18.9997C66.8311 18.9997 69.6667 16.1641 69.6667 12.6663C69.6667 9.16854 66.8311 6.33301 63.3333 6.33301C59.8355 6.33301 57 9.16854 57 12.6663C57 16.1641 59.8355 18.9997 63.3333 18.9997Z" stroke="#DE784C" stroke-width="2.5" stroke-linecap="round" stroke-linejoin="round"/>
<path d="M63.3333 69.6667C66.8311 69.6667 69.6667 66.8311 69.6667 63.3333C69.6667 59.8355 66.8311 57 63.3333 57C59.8355 57 57 59.8355 57 63.3333C57 66.8311 59.8355 69.6667 63.3333 69.6667Z" stroke="#DE784C" stroke-width="2.5" stroke-linecap="round" stroke-linejoin="round"/>
<path d="M12.6668 44.3337C16.1646 44.3337 19.0002 41.4981 19.0002 38.0003C19.0002 34.5025 16.1646 31.667 12.6668 31.667C9.16903 31.667 6.3335 34.5025 6.3335 38.0003C6.3335 41.4981 9.16903 44.3337 12.6668 44.3337Z" stroke="#DE784C" stroke-width="2.5" stroke-linecap="round" stroke-linejoin="round"/>
<path d="M57.0002 12.667H44.3335C38.0002 12.667 34.8335 15.8337 34.8335 22.167V53.8337C34.8335 60.167 38.0002 63.3337 44.3335 63.3337H57.0002" stroke="#DE784C" stroke-width="2.5" stroke-linecap="round" stroke-linejoin="round"/>
</svg>
