<svg width="73" height="76" viewBox="0 0 73 76" fill="none" xmlns="http://www.w3.org/2000/svg">
<path d="M66.106 26.3898V13.6483C66.106 8.63369 64.2001 6.61523 59.4652 6.61523H47.4345C42.6996 6.61523 40.7937 8.63369 40.7937 13.6483V26.3898C40.7937 31.4044 42.6996 33.4228 47.4345 33.4228H59.4652C64.2001 33.4228 66.106 31.4044 66.106 26.3898Z" stroke="#FD8552" stroke-width="2" stroke-linecap="round" stroke-linejoin="round"/>
<path d="M31.86 27.1782V12.8598C31.86 8.41292 29.9542 6.61523 25.2193 6.61523H13.1885C8.4536 6.61523 6.54773 8.41292 6.54773 12.8598V27.1467C6.54773 31.6252 8.4536 33.3913 13.1885 33.3913H25.2193C29.9542 33.4228 31.86 31.6252 31.86 27.1782Z" stroke="#FD8552" stroke-width="2" stroke-linecap="round" stroke-linejoin="round"/>
<path d="M31.86 62.6583V49.9168C31.86 44.9022 29.9542 42.8838 25.2193 42.8838H13.1885C8.4536 42.8838 6.54773 44.9022 6.54773 49.9168V62.6583C6.54773 67.6729 8.4536 69.6914 13.1885 69.6914H25.2193C29.9542 69.6914 31.86 67.6729 31.86 62.6583Z" stroke="#FD8552" stroke-width="2" stroke-linecap="round" stroke-linejoin="round"/>
<path d="M45.2606 49.1914H63.1281" stroke="#FD8552" stroke-width="2" stroke-linecap="round"/>
<path d="M45.2606 61.8066H63.1281" stroke="#FD8552" stroke-width="2" stroke-linecap="round"/>
</svg>
