<svg width="76" height="76" viewBox="0 0 76 76" fill="none" xmlns="http://www.w3.org/2000/svg">
<path d="M38.0002 69.6663C55.4892 69.6663 69.6668 55.4887 69.6668 37.9997C69.6668 20.5107 55.4892 6.33301 38.0002 6.33301C20.5111 6.33301 6.3335 20.5107 6.3335 37.9997C6.3335 55.4887 20.5111 69.6663 38.0002 69.6663Z" stroke="#DE784C" stroke-width="2.5" stroke-linecap="round" stroke-linejoin="round"/>
<path d="M25.3643 45.9478C25.9343 46.8978 26.6309 47.7846 27.4226 48.5762C33.2492 54.4029 42.7175 54.4029 48.5759 48.5762C50.9509 46.2012 52.3126 43.1928 52.7559 40.1211" stroke="#DE784C" stroke-width="2.5" stroke-linecap="round" stroke-linejoin="round"/>
<path d="M23.2427 35.8798C23.686 32.7765 25.0477 29.7997 27.4227 27.4247C33.2494 21.598 42.7177 21.598 48.576 27.4247C49.3993 28.248 50.0643 29.1347 50.6343 30.0531" stroke="#DE784C" stroke-width="2.5" stroke-linecap="round" stroke-linejoin="round"/>
<path d="M24.7627 54.4061V45.9512H33.2176" stroke="#DE784C" stroke-width="2.5" stroke-linecap="round" stroke-linejoin="round"/>
<path d="M51.2357 21.5977V30.0526H42.7808" stroke="#DE784C" stroke-width="2.5" stroke-linecap="round" stroke-linejoin="round"/>
</svg>
