<svg width="81" height="73" viewBox="0 0 81 73" fill="none" xmlns="http://www.w3.org/2000/svg">
<rect width="55" height="55" transform="translate(26)" fill="#3D4675"/>
<path d="M72.9793 25.8955V16.133C72.9793 6.89761 70.8252 4.58301 62.1627 4.58301H44.8377C36.1752 4.58301 34.021 6.89761 34.021 16.133V41.9371C34.021 48.033 37.3669 49.4768 41.4231 45.1226L41.446 45.0997C43.3251 43.1059 46.1897 43.2663 47.8168 45.4434L50.1314 48.5372" fill="#3D4675"/>
<path d="M72.9793 25.8955V16.133C72.9793 6.89761 70.8252 4.58301 62.1627 4.58301H44.8377C36.1752 4.58301 34.021 6.89761 34.021 16.133V41.9371C34.021 48.033 37.3669 49.4768 41.4231 45.1226L41.446 45.0997C43.3251 43.1059 46.1897 43.2663 47.8168 45.4434L50.1314 48.5372" stroke="#DE784C" stroke-width="2.5" stroke-linecap="round" stroke-linejoin="round"/>
<path d="M67.7084 49.0417C71.7584 49.0417 75.0417 45.7584 75.0417 41.7084C75.0417 37.6583 71.7584 34.375 67.7084 34.375C63.6583 34.375 60.375 37.6583 60.375 41.7084C60.375 45.7584 63.6583 49.0417 67.7084 49.0417Z" fill="#3D4675" stroke="#DE784C" stroke-width="2.5" stroke-linecap="round" stroke-linejoin="round"/>
<path d="M76.4167 50.4167L74.125 48.125" stroke="#DE784C" stroke-width="2.5" stroke-linecap="round" stroke-linejoin="round"/>
<path d="M44.3335 16.042H62.6668" stroke="#DE784C" stroke-width="2.5" stroke-linecap="round" stroke-linejoin="round"/>
<path d="M46.625 25.208H60.375" stroke="#DE784C" stroke-width="2.5" stroke-linecap="round" stroke-linejoin="round"/>
<path d="M20.25 68.5H33.75C45 68.5 49.5 64 49.5 52.75V39.25C49.5 28 45 23.5 33.75 23.5H20.25C9 23.5 4.5 28 4.5 39.25V52.75C4.5 64 9 68.5 20.25 68.5Z" fill="#3D4675" stroke="#DE784C" stroke-width="2.5" stroke-linecap="round" stroke-linejoin="round"/>
<path d="M15.75 37.5625C18 39.8125 21.6675 39.8125 23.94 37.5625H15.75Z" fill="#3D4675"/>
<path d="M15.75 37.5625C18 39.8125 21.6675 39.8125 23.94 37.5625" stroke="#DE784C" stroke-width="2.5" stroke-miterlimit="10" stroke-linecap="round" stroke-linejoin="round"/>
<path d="M30.0596 37.5625C32.3096 39.8125 35.9771 39.8125 38.2496 37.5625H30.0596Z" fill="#3D4675"/>
<path d="M30.0596 37.5625C32.3096 39.8125 35.9771 39.8125 38.2496 37.5625" stroke="#DE784C" stroke-width="2.5" stroke-miterlimit="10" stroke-linecap="round" stroke-linejoin="round"/>
<path d="M18.9 48.25H35.1C36.225 48.25 37.125 49.15 37.125 50.275C37.125 55.8775 32.6025 60.4 27 60.4C21.3975 60.4 16.875 55.8775 16.875 50.275C16.875 49.15 17.775 48.25 18.9 48.25Z" fill="#3D4675" stroke="#DE784C" stroke-width="2.5" stroke-miterlimit="10" stroke-linecap="round" stroke-linejoin="round"/>
</svg>
