<svg width="81" height="81" viewBox="0 0 81 81" fill="none" xmlns="http://www.w3.org/2000/svg">
<path d="M78.6923 55.8231C78.6923 68.5922 68.3617 78.923 55.5925 78.923C49.6892 78.923 44.299 76.6772 40.1924 73.0197C44.9407 68.8489 47.8925 62.6889 47.8925 55.8231C47.8925 52.8073 47.315 49.9198 46.2883 47.2889C53.3466 45.364 59.0572 40.2306 61.688 33.4932C71.4414 36.1882 78.6923 45.1715 78.6923 55.8231Z" stroke="#DE784C" stroke-width="3" stroke-linecap="round" stroke-linejoin="round"/>
<path d="M47.8924 55.8224C47.8924 62.624 44.9407 68.784 40.1923 73.019C36.0857 76.7406 30.6955 78.9223 24.7922 78.9223C12.023 78.9223 1.69238 68.5915 1.69238 55.8224C1.69238 45.1708 8.94336 36.1875 18.6967 33.5566C21.3275 40.2299 27.0381 45.4274 34.0964 47.3524C36.0214 47.8657 38.0748 48.1866 40.1923 48.1866C42.3098 48.1866 44.3632 47.9299 46.2882 47.3524C47.3149 49.9191 47.8924 52.8066 47.8924 55.8224Z" stroke="#DE784C" stroke-width="3" stroke-linecap="round" stroke-linejoin="round"/>
<path d="M63.2919 25.0227C63.2919 28.0386 62.7144 30.9261 61.6878 33.5569C59.0569 40.2302 53.3463 45.4277 46.288 47.3526C44.363 47.866 42.3096 48.1868 40.1921 48.1868C38.0746 48.1868 36.0212 47.9301 34.0962 47.3526C27.0379 45.4277 21.3273 40.2943 18.6964 33.5569C17.6698 30.9261 17.0923 28.0386 17.0923 25.0227C17.0923 12.2536 27.4229 1.92285 40.1921 1.92285C52.9613 1.92285 63.2919 12.2536 63.2919 25.0227Z" stroke="#DE784C" stroke-width="3" stroke-linecap="round" stroke-linejoin="round"/>
</svg>
