<svg width="86" height="85" viewBox="0 0 86 85" fill="none" xmlns="http://www.w3.org/2000/svg">
<path d="M65 43.5C65 46.4615 62.8852 49 60.418 49L26.582 49C24.1148 49 22 46.4615 22 43.5C22 40.5385 24.1148 38 26.582 38L60.7705 38C63.2377 38 65 40.5385 65 43.5Z" stroke="#F17D4C" stroke-width="2" stroke-miterlimit="10"/>
<path d="M32.1674 61.1399C30.0494 60.0927 29.3434 57.3001 30.4024 54.8566L47.3468 25.5342C48.7588 23.4397 51.5829 22.7416 53.7009 23.7888C55.819 25.1851 56.525 27.9777 55.466 30.0722L38.5216 59.3945C37.4625 61.8381 34.6385 62.5362 32.1674 61.1399Z" stroke="#F17D4C" stroke-width="2" stroke-miterlimit="10"/>
<path d="M54.0519 61.1396C51.9339 62.5359 49.1098 61.4887 47.6978 59.3942L30.7534 30.0719C29.3413 27.9774 30.4003 25.1848 32.5184 23.7885C34.6364 22.3922 37.4605 23.4395 38.8725 25.5339L55.8169 54.8563C56.876 57.2998 56.17 60.0924 54.0519 61.1396Z" stroke="#F17D4C" stroke-width="2" stroke-miterlimit="10"/>
<path d="M78.4116 42.6383C78.4116 23.3594 62.6069 7.73078 43.1108 7.73078C23.6147 7.73078 7.80993 23.3594 7.80993 42.6383C7.80994 61.9173 23.6147 77.5459 43.1108 77.5459C62.6069 77.5459 78.4116 61.9172 78.4116 42.6383Z" stroke="#F17D4C" stroke-width="2" stroke-miterlimit="10"/>
</svg>
