<svg width="76" height="76" viewBox="0 0 76 76" fill="none" xmlns="http://www.w3.org/2000/svg">
<path d="M34.7628 56.8848V66.3655C34.7628 67.9457 33.4987 69.5258 31.6025 69.5258C29.7064 69.5258 28.4423 67.9457 28.4423 66.3655V56.8848H34.7628Z" stroke="#5D5FEF" stroke-width="2.5" stroke-miterlimit="10" stroke-linecap="round" stroke-linejoin="round"/>
<path d="M47.4039 56.8848V66.3655C47.4039 67.9457 46.1398 69.5258 44.2436 69.5258C42.3475 69.5258 41.0834 67.9457 41.0834 66.3655V56.8848H47.4039Z" stroke="#5D5FEF" stroke-width="2.5" stroke-miterlimit="10" stroke-linecap="round" stroke-linejoin="round"/>
<path d="M53.7244 34.7629V50.5642C53.7244 54.0405 50.8802 56.8847 47.4039 56.8847H28.4423C24.9661 56.8847 22.1218 54.0405 22.1218 50.5642V34.7629C22.1218 31.2866 24.9661 28.4424 28.4423 28.4424H47.4039C50.8802 28.4424 53.7244 31.2866 53.7244 34.7629Z" stroke="#5D5FEF" stroke-width="2.5" stroke-miterlimit="10" stroke-linecap="round" stroke-linejoin="round"/>
<path d="M15.8012 34.7618V47.4028C15.8012 49.299 14.5371 50.5631 12.641 50.5631C10.7448 50.5631 9.48071 49.299 9.48071 47.4028V34.7618C9.48071 32.8657 10.7448 31.6016 12.641 31.6016C14.5371 31.6016 15.8012 32.8657 15.8012 34.7618Z" stroke="#5D5FEF" stroke-width="2.5" stroke-miterlimit="10" stroke-linecap="round" stroke-linejoin="round"/>
<path d="M66.3654 34.7618V47.4028C66.3654 49.299 65.1013 50.5631 63.2052 50.5631C61.309 50.5631 60.0449 49.299 60.0449 47.4028V34.7618C60.0449 32.8657 61.309 31.6016 63.2052 31.6016C65.1013 31.6016 66.3654 32.8657 66.3654 34.7618Z" stroke="#5D5FEF" stroke-width="2.5" stroke-miterlimit="10" stroke-linecap="round" stroke-linejoin="round"/>
<path d="M41.0832 56.8848H34.7627" stroke="#5D5FEF" stroke-width="2.5" stroke-miterlimit="10" stroke-linecap="round" stroke-linejoin="round"/>
<path d="M30.3384 22.1217H45.5076C48.3519 22.1217 50.564 19.7515 50.564 16.7041C50.564 9.25494 44.8756 3.16016 37.923 3.16016C30.9704 3.16016 25.282 9.25494 25.282 16.7041C25.282 19.7515 27.4942 22.1217 30.3384 22.1217Z" stroke="#5D5FEF" stroke-width="2.5" stroke-miterlimit="10" stroke-linecap="round" stroke-linejoin="round"/>
</svg>
