<svg width="65" height="65" viewBox="0 0 65 65" fill="none" xmlns="http://www.w3.org/2000/svg">
<path fill-rule="evenodd" clip-rule="evenodd" d="M41.7084 5.41699C42.2501 8.39616 40.8959 11.3753 39.2709 13.542C37.6459 15.7087 34.6667 17.6045 31.6876 17.3337C31.1459 14.3545 32.5001 11.6462 34.1251 9.47949C36.0209 7.31283 39.0001 5.68783 41.7084 5.41699ZM50.3751 52.542C51.7292 50.3753 52.5417 49.0212 53.6251 46.5837C45.2292 43.3337 43.8751 31.417 52.2709 27.0837C49.8334 23.8337 46.3126 22.2087 42.7917 22.2087C40.3542 22.2087 38.7292 22.7503 37.1042 23.292C35.7501 23.8337 34.6667 24.1045 33.3126 24.1045C31.6876 24.1045 30.6042 23.5628 28.9792 23.0212C27.3542 22.4795 25.7292 21.9378 23.8334 21.9378C20.0417 21.9378 15.9792 24.1045 13.5417 28.167C10.0209 33.5837 10.5626 44.1462 16.2501 52.8128C18.6876 56.0628 21.3959 59.5837 24.9167 59.5837C26.5417 59.5837 27.3542 59.042 28.4376 58.7712C29.7917 58.2295 31.1459 57.6878 33.3126 57.6878C35.7501 57.6878 36.8334 58.2295 38.1876 58.7712C39.2709 59.3128 40.0834 59.5837 41.7084 59.5837C45.5001 59.5837 48.2084 55.5212 50.3751 52.542Z" stroke="#5D5FEF" stroke-width="2.5" stroke-miterlimit="10" stroke-linecap="round" stroke-linejoin="round"/>
<path d="M50.3752 52.542C51.7294 50.3753 52.5419 49.0212 53.6252 46.5837M41.7085 5.41699C42.2502 8.39616 40.896 11.3753 39.271 13.542C37.646 15.7087 34.6669 17.6045 31.6877 17.3337C31.146 14.3545 32.5002 11.6462 34.1252 9.47949C36.021 7.31283 39.0002 5.68783 41.7085 5.41699Z" stroke="#5D5FEF" stroke-width="2.5" stroke-miterlimit="10" stroke-linecap="round" stroke-linejoin="round"/>
</svg>
