<svg width="69" height="69" viewBox="0 0 69 69" fill="none" xmlns="http://www.w3.org/2000/svg">
<path d="M24.1923 53.9911H22.7692C11.3846 53.9911 5.69226 51.1449 5.69226 36.9141V22.6834C5.69226 11.2988 11.3846 5.60645 22.7692 5.60645H45.5384C56.923 5.60645 62.6153 11.2988 62.6153 22.6834V36.9141C62.6153 48.2988 56.923 53.9911 45.5384 53.9911H44.1153C43.233 53.9911 42.3792 54.4181 41.8384 55.1296L37.5692 60.8219C35.6908 63.3265 32.6168 63.3265 30.7384 60.8219L26.4691 55.1296C26.0138 54.5034 24.9892 53.9911 24.1923 53.9911Z" stroke="#5D5FEF" stroke-width="2.5" stroke-miterlimit="10" stroke-linecap="round" stroke-linejoin="round"/>
<path d="M22.7692 24.7617V24.7617C19.6254 27.9055 19.6254 33.0026 22.7692 36.1463V36.1463" stroke="#5D5FEF" stroke-width="2.5" stroke-miterlimit="10" stroke-linecap="round" stroke-linejoin="round"/>
<path d="M45.5385 24.7617V24.7617C48.6822 27.9055 48.6822 33.0026 45.5385 36.1463V36.1463" stroke="#5D5FEF" stroke-width="2.5" stroke-miterlimit="10" stroke-linecap="round" stroke-linejoin="round"/>
<path d="M37 23.8223L31.3077 37.0854" stroke="#5D5FEF" stroke-width="2.5" stroke-miterlimit="10" stroke-linecap="round" stroke-linejoin="round"/>
</svg>
