<svg width="66" height="66" viewBox="0 0 66 66" fill="none" xmlns="http://www.w3.org/2000/svg">
<path d="M38.6905 26.5496L32.6502 29.563M32.6502 29.563L26.6099 26.5496M32.6502 29.563V37.11M56.8386 17.4823L50.7983 20.4957M56.8386 17.4823L50.7983 14.4689M56.8386 17.4823V25.0293M8.46185 17.4823L14.5022 14.4689M8.46185 17.4823L14.5022 20.4957M8.46185 17.4823V25.0293M32.6502 59.724L26.6099 56.7106M32.6502 59.724L38.6905 56.7106M32.6502 59.724V52.1769M50.7983 50.6838L56.8386 47.6704V40.1234M38.6905 8.4421L32.6502 5.42871L26.6099 8.4421H38.6905ZM14.5022 50.6838L8.46185 47.6704V40.1234L14.5022 50.6838Z" stroke="#5D5FEF" stroke-width="2.5" stroke-linecap="round" stroke-linejoin="round"/>
<path d="M32.6502 59.7256L26.6099 56.7122M32.6502 59.7256L38.6905 56.7122M32.6502 59.7256V52.1786M14.5022 50.6854L8.46185 47.672V40.125L14.5022 50.6854Z" stroke="#5D5FEF" stroke-width="2.5" stroke-linecap="round" stroke-linejoin="round"/>
</svg>
