<svg width="73" height="77" viewBox="0 0 73 77" fill="none" xmlns="http://www.w3.org/2000/svg">
<path d="M36.1331 24.3828H11.7432C9.33427 24.3828 7.2265 26.3078 6.62428 28.8745C5.72094 35.2911 5.72094 41.7078 6.62428 48.1245C6.92539 50.6911 9.03316 52.6161 11.7432 52.6161H22.8842" stroke="#F17D4C" stroke-width="2" stroke-linecap="round" stroke-linejoin="round"/>
<path d="M22.8843 24.3838V12.513C22.8843 9.94629 24.6909 7.70046 27.0998 7.05879C33.122 6.09629 39.1442 6.09629 45.1665 7.05879C47.5753 7.37962 49.382 9.62546 49.382 12.513V31.4421C49.382 35.2921 46.3709 38.5005 42.7576 38.5005H29.5087C25.8954 38.5005 22.8843 41.7088 22.8843 45.5588V64.488C22.8843 67.0546 24.6909 69.3005 27.0998 69.9421C33.122 70.9046 39.1442 70.9046 45.1665 69.9421C47.5753 69.6213 49.382 67.3755 49.382 64.488V52.6171" stroke="#F17D4C" stroke-width="2" stroke-linecap="round" stroke-linejoin="round"/>
<path d="M49.382 24.3828H60.5231C62.932 24.3828 65.0398 26.3078 65.642 28.8745C66.5453 35.2911 66.5453 41.7078 65.642 48.1245C65.3409 50.6911 63.2331 52.6161 60.5231 52.6161H36.1332" stroke="#F17D4C" stroke-width="2" stroke-linecap="round" stroke-linejoin="round"/>
<path d="M30.1113 15.5625V15.5625" stroke="#F17D4C" stroke-width="2" stroke-linecap="round" stroke-linejoin="round"/>
<path d="M42.1553 61.4395V61.4395" stroke="#F17D4C" stroke-width="2" stroke-linecap="round" stroke-linejoin="round"/>
<path d="M36.134 24.3828H11.744C9.33513 24.3828 7.22735 26.3078 6.62513 28.8745C5.7218 35.2911 5.7218 41.7078 6.62513 48.1245" stroke="#F17D4C" stroke-width="2" stroke-linecap="round" stroke-linejoin="round"/>
</svg>
