<svg width="72" height="72" viewBox="0 0 72 72" fill="none" xmlns="http://www.w3.org/2000/svg">
<path d="M30 50.8508H18.63C8.52 50.8508 6 48.3308 6 38.2208V20.2208C6 10.1108 8.52 7.59082 18.63 7.59082H50.22C60.33 7.59082 62.85 10.1108 62.85 20.2208" stroke="#5D5FEF" stroke-width="2.5" stroke-linecap="round" stroke-linejoin="round"/>
<path d="M30 64.4106V50.8506" stroke="#5D5FEF" stroke-width="2.5" stroke-linecap="round" stroke-linejoin="round"/>
<path d="M6 38.8506H30" stroke="#5D5FEF" stroke-width="2.5" stroke-linecap="round" stroke-linejoin="round"/>
<path d="M20.22 64.4092H30" stroke="#5D5FEF" stroke-width="2.5" stroke-linecap="round" stroke-linejoin="round"/>
<path d="M66.0001 38.3995V55.5295C66.0001 62.6395 64.2301 64.4095 57.1201 64.4095H46.4701C39.3601 64.4095 37.5901 62.6395 37.5901 55.5295V38.3995C37.5901 31.2895 39.3601 29.5195 46.4701 29.5195H57.1201C64.2301 29.5195 66.0001 31.2895 66.0001 38.3995Z" stroke="#5D5FEF" stroke-width="2.5" stroke-linecap="round" stroke-linejoin="round"/>
<path d="M51.7335 54.75H51.7605" stroke="#5D5FEF" stroke-width="2.5" stroke-linecap="round" stroke-linejoin="round"/>
</svg>
